#Comment line ignore any data following # character 
#Hierarchical Translation and Rotation (.htr) file 
[Header]	
#Header keywords are followed by a single value 
FileType HTR		#Single word string
DataType HTRS		#Translation followed by rotation and scale data
FileVersion 1		#integer
NumSegments 64		#integer
NumFrames 3		#integer
DataFrameRate 30		#integer, data frame rate in this file
EulerRotationOrder ZYX
CalibrationUnits mm
RotationUnits Degrees
GlobalAxisofGravity Y
BoneLengthAxis Y
ScaleFactor 1.00
[SegmentNames&Hierarchy]
#CHILD	PARENT
Pinger_Root GLOBAL
Pelvis Pinger_Root
L_Hip Pelvis
R_Hip Pelvis
Rear_Leg01 Pelvis
Spine1 Pelvis
L_Leg01 L_Hip
L_Leg02 L_Leg01
L_Leg03 L_Leg02
L_Foot L_Leg03
L_Toe1_01 L_Foot
L_Toe2_01 L_Foot
L_Toe3_01 L_Foot
planeAlignerLeft L_Foot
L_Toe1_02 L_Toe1_01
L_Toe1_03 L_Toe1_02
L_Toe2_02 L_Toe2_01
L_Toe2_03 L_Toe2_02
L_Toe3_02 L_Toe3_01
L_Toe3_03 L_Toe3_02
planeLockWeightLeft planeAlignerLeft
R_Leg01 R_Hip
R_Leg02 R_Leg01
R_Leg03 R_Leg02
R_Foot R_Leg03
planeAlignerRight R_Foot
R_Toe1_01 R_Foot
R_Toe2_01 R_Foot
R_Toe3_01 R_Foot
planeLockWeightRight planeAlignerRight
R_Toe1_02 R_Toe1_01
R_Toe1_03 R_Toe1_02
R_Toe2_02 R_Toe2_01
R_Toe2_03 R_Toe2_02
R_Toe3_02 R_Toe3_01
R_Toe3_03 R_Toe3_02
Rear_Leg02 Rear_Leg01
Rear_Leg03 Rear_Leg02
Rear_Leg04 Rear_Leg03
Rear_Foot Rear_Leg04
planeAlignerCenter Rear_Foot
Rear_Toe1_01 Rear_Foot
Rear_Toe2_01 Rear_Foot
Rear_Toe3_01 Rear_Foot
planeLockWeightCenter planeAlignerCenter
Rear_Toe1_02 Rear_Toe1_01
Rear_Toe1_03 Rear_Toe1_02
Rear_Toe2_02 Rear_Toe2_01
Rear_Toe2_03 Rear_Toe2_02
Rear_Toe3_02 Rear_Toe3_01
Rear_Toe3_03 Rear_Toe3_02
Back_Bone Spine1
Head Spine1
Motor_Bone Back_Bone
Ping_Mechanism Back_Bone
BN_LookIK Head
bottomMouth Head
L_Mouth01 Head
L_mouthFront Head
mouthGun Head
R_Mouth01 Head
R_mouthFront Head
TopMouth Head
weapon_bone Head
[BasePosition]
#SegmentName Tx, Ty, Tz, Rx, Ry, Rz, BoneLength
Pinger_Root 0.000000 0.000000 0.000000 -90.000000 0.000000 0.000000 10.000000 
Pelvis 0.000000 0.000000 0.000000 0.000000 0.000000 0.000000 10.000000 
L_Hip 0.000000 0.000000 0.000000 0.000000 0.000000 0.000000 10.000000 
R_Hip 0.000000 0.000000 0.000000 0.000000 0.000000 0.000000 10.000000 
Rear_Leg01 0.000000 0.000000 0.000000 0.000000 0.000000 0.000000 10.000000 
Spine1 0.000000 0.000000 0.000000 0.000000 0.000000 0.000000 10.000000 
L_Leg01 0.000000 0.000000 0.000000 0.000000 0.000000 0.000000 10.000000 
L_Leg02 0.000000 0.000000 0.000000 0.000000 0.000000 0.000000 10.000000 
L_Leg03 0.000000 0.000000 0.000000 0.000000 0.000000 0.000000 10.000000 
L_Foot 0.000000 0.000000 0.000000 0.000000 0.000000 0.000000 10.000000 
L_Toe1_01 0.000000 0.000000 0.000000 0.000000 0.000000 0.000000 10.000000 
L_Toe2_01 0.000000 0.000000 0.000000 0.000000 0.000000 0.000000 10.000000 
L_Toe3_01 0.000000 0.000000 0.000000 0.000000 0.000000 0.000000 10.000000 
planeAlignerLeft 0.000000 0.000000 0.000000 0.000000 0.000000 0.000000 10.000000 
L_Toe1_02 0.000000 0.000000 0.000000 0.000000 0.000000 0.000000 10.000000 
L_Toe1_03 0.000000 0.000000 0.000000 0.000000 0.000000 0.000000 10.000000 
L_Toe2_02 0.000000 0.000000 0.000000 0.000000 0.000000 0.000000 10.000000 
L_Toe2_03 0.000000 0.000000 0.000000 0.000000 0.000000 0.000000 10.000000 
L_Toe3_02 0.000000 0.000000 0.000000 0.000000 0.000000 0.000000 10.000000 
L_Toe3_03 0.000000 0.000000 0.000000 0.000000 0.000000 0.000000 10.000000 
planeLockWeightLeft 0.000000 0.000000 0.000000 0.000000 0.000000 0.000000 10.000000 
R_Leg01 0.000000 0.000000 0.000000 0.000000 0.000000 0.000000 10.000000 
R_Leg02 0.000000 0.000000 0.000000 0.000000 0.000000 0.000000 10.000000 
R_Leg03 0.000000 0.000000 0.000000 0.000000 0.000000 0.000000 10.000000 
R_Foot 0.000000 0.000000 0.000000 0.000000 0.000000 0.000000 10.000000 
planeAlignerRight 0.000000 0.000000 0.000000 0.000000 0.000000 0.000000 10.000000 
R_Toe1_01 0.000000 0.000000 0.000000 0.000000 0.000000 0.000000 10.000000 
R_Toe2_01 0.000000 0.000000 0.000000 0.000000 0.000000 0.000000 10.000000 
R_Toe3_01 0.000000 0.000000 0.000000 0.000000 0.000000 0.000000 10.000000 
planeLockWeightRight 0.000000 0.000000 0.000000 0.000000 0.000000 0.000000 10.000000 
R_Toe1_02 0.000000 0.000000 0.000000 0.000000 0.000000 0.000000 10.000000 
R_Toe1_03 0.000000 0.000000 0.000000 0.000000 0.000000 0.000000 10.000000 
R_Toe2_02 0.000000 0.000000 0.000000 0.000000 0.000000 0.000000 10.000000 
R_Toe2_03 0.000000 0.000000 0.000000 0.000000 0.000000 0.000000 10.000000 
R_Toe3_02 0.000000 0.000000 0.000000 0.000000 0.000000 0.000000 10.000000 
R_Toe3_03 0.000000 0.000000 0.000000 0.000000 0.000000 0.000000 10.000000 
Rear_Leg02 0.000000 0.000000 0.000000 0.000000 0.000000 0.000000 10.000000 
Rear_Leg03 0.000000 0.000000 0.000000 0.000000 0.000000 0.000000 10.000000 
Rear_Leg04 0.000000 0.000000 0.000000 0.000000 0.000000 0.000000 10.000000 
Rear_Foot 0.000000 0.000000 0.000000 0.000000 0.000000 0.000000 10.000000 
planeAlignerCenter 0.000000 0.000000 0.000000 0.000000 0.000000 0.000000 10.000000 
Rear_Toe1_01 0.000000 0.000000 0.000000 0.000000 0.000000 0.000000 10.000000 
Rear_Toe2_01 0.000000 0.000000 0.000000 0.000000 0.000000 0.000000 10.000000 
Rear_Toe3_01 0.000000 0.000000 0.000000 0.000000 0.000000 0.000000 10.000000 
planeLockWeightCenter 0.000000 0.000000 0.000000 0.000000 0.000000 0.000000 10.000000 
Rear_Toe1_02 0.000000 0.000000 0.000000 0.000000 0.000000 0.000000 10.000000 
Rear_Toe1_03 0.000000 0.000000 0.000000 0.000000 0.000000 0.000000 10.000000 
Rear_Toe2_02 0.000000 0.000000 0.000000 0.000000 0.000000 0.000000 10.000000 
Rear_Toe2_03 0.000000 0.000000 0.000000 0.000000 0.000000 0.000000 10.000000 
Rear_Toe3_02 0.000000 0.000000 0.000000 0.000000 0.000000 0.000000 10.000000 
Rear_Toe3_03 0.000000 0.000000 0.000000 0.000000 0.000000 0.000000 10.000000 
Back_Bone 0.000000 0.000000 0.000000 0.000000 0.000000 0.000000 10.000000 
Head 0.000000 0.000000 0.000000 0.000000 0.000000 0.000000 10.000000 
Motor_Bone 0.000000 0.000000 0.000000 0.000000 0.000000 0.000000 10.000000 
Ping_Mechanism 0.000000 0.000000 0.000000 0.000000 0.000000 0.000000 10.000000 
BN_LookIK 0.000000 0.000000 0.000000 0.000000 0.000000 0.000000 10.000000 
bottomMouth 0.000000 0.000000 0.000000 0.000000 0.000000 0.000000 10.000000 
L_Mouth01 0.000000 0.000000 0.000000 0.000000 0.000000 0.000000 10.000000 
L_mouthFront 0.000000 0.000000 0.000000 0.000000 0.000000 0.000000 10.000000 
mouthGun 0.000000 0.000000 0.000000 0.000000 0.000000 0.000000 10.000000 
R_Mouth01 0.000000 0.000000 0.000000 0.000000 0.000000 0.000000 10.000000 
R_mouthFront 0.000000 0.000000 0.000000 0.000000 0.000000 0.000000 10.000000 
TopMouth 0.000000 0.000000 0.000000 0.000000 0.000000 0.000000 10.000000 
weapon_bone 0.000000 0.000000 0.000000 0.000000 0.000000 0.000000 10.000000 
#Beginning of Data. Separated by tabs
#Fr	Tx	Ty	Tz	Rx	Ry	Rz	SF
[Pinger_Root]
7 0.000000 0.000000 0.000000 -0.000075 -0.000000 -0.000020 0.000000
8 0.000000 0.000000 0.000000 -0.000075 -0.000000 -0.000020 0.000000
9 0.000000 0.000000 0.000000 -0.000075 -0.000000 -0.000020 0.000000
[Pelvis]
7 319.360657 1255.739258 3625.808105 -65.501732 -72.969688 79.788063 3850.370850
8 384.614929 1263.443970 3607.681396 -68.477966 -67.369217 83.797516 3841.820313
9 368.205994 1208.924072 3615.591309 -71.203842 -64.691193 86.675987 3830.087891
[L_Hip]
7 5.766392 125.831482 872.656799 160.158691 -45.484905 122.312202 881.701050
8 5.766392 125.831482 872.656799 160.158691 -45.484905 122.312202 881.701050
9 5.766392 125.831482 872.656799 162.195282 -46.156948 119.471962 881.701050
[R_Hip]
7 5.765438 125.836372 -872.654907 38.087841 49.812687 125.703735 881.699829
8 5.765438 125.836372 -872.654907 38.087841 49.812687 125.703735 881.699829
9 5.765438 125.836372 -872.654907 37.661175 49.420563 126.199997 881.699829
[Rear_Leg01]
7 -192.298416 -925.602966 -0.001907 -154.947281 -23.880129 -136.903687 945.367432
8 -192.298416 -925.602966 -0.001907 -147.855194 -23.752182 -147.976791 945.367432
9 -192.298416 -925.602966 -0.001907 -148.078995 -23.839729 -151.141998 945.367432
[Spine1]
7 290.604584 5.007505 0.000477 -18.403227 7.240260 23.047609 290.647736
8 290.604584 5.007505 0.000477 -19.687447 7.099036 19.474392 290.647736
9 290.604584 5.007505 0.000477 -19.690449 7.290569 17.243196 290.647736
[L_Leg01]
7 761.932007 -0.002384 -0.069261 36.556992 -20.492649 -29.411465 761.932068
8 761.932007 -0.002384 -0.069261 34.443771 -22.088972 -27.378729 761.932068
9 761.932007 -0.002384 -0.069261 31.087381 -25.904333 -23.685869 761.932068
[L_Leg02]
7 1441.140503 -0.000954 -0.000715 7.246297 2.827757 -97.091385 1441.140503
8 1441.140503 -0.000954 -0.000715 7.260916 2.645647 -89.350937 1441.140503
9 1441.140503 -0.000954 -0.000715 7.117252 2.641056 -94.441452 1441.140503
[L_Leg03]
7 1686.963989 -0.000715 -0.000954 -0.122904 0.077330 143.300232 1686.963989
8 1686.963989 -0.000715 -0.000954 -0.117205 0.073320 142.444626 1686.963989
9 1686.963989 -0.000715 -0.000954 -0.117081 0.073517 142.637833 1686.963989
[L_Foot]
7 3041.570068 -30.715107 11.297464 1.690305 14.221760 29.037239 3041.746094
8 3041.570068 -30.715107 11.297464 0.491677 14.352921 24.979000 3041.746094
9 3041.570068 -30.715107 11.297464 0.590228 13.952488 26.291519 3041.746094
[L_Toe1_01]
7 -188.216690 -224.732346 -21.137953 94.699783 -6.800762 179.304504 293.899567
8 -188.216690 -224.732346 -21.137953 94.878632 -6.861675 178.516251 293.899567
9 -188.216690 -224.732346 -21.137953 94.350998 -7.329263 179.150742 293.899567
[L_Toe2_01]
7 200.746536 -219.926590 148.838394 -91.675125 -25.965429 -48.922798 332.896027
8 200.746536 -219.926590 148.838394 -91.579239 -25.389717 -49.591499 332.896027
9 200.746536 -219.926590 148.838394 -89.859612 -24.998728 -50.356052 332.896027
[L_Toe3_01]
7 188.832520 -219.859131 -191.078659 -99.104195 13.777907 -62.836506 347.140900
8 188.832520 -219.859131 -191.078659 -99.184982 13.096079 -63.711815 347.140900
9 188.832520 -219.859131 -191.078659 -98.788933 13.075902 -63.838741 347.140900
[planeAlignerLeft]
7 110.334488 -546.200073 100.162422 169.306686 -76.298271 89.968506 566.163208
8 136.404114 -562.569763 101.086433 169.306656 -76.298256 89.968506 587.630249
9 133.686523 -569.172974 106.958618 169.266754 -76.839996 89.996735 594.365356
[L_Toe1_02]
7 413.761139 0.000477 0.000000 0.001397 -24.249571 0.001397 413.761139
8 413.761139 0.000477 0.000000 0.001404 -23.435772 0.001404 413.761139
9 413.761139 0.000477 0.000000 0.001402 -23.681747 0.001402 413.761139
[L_Toe1_03]
7 464.317322 0.000358 -0.000089 0.007523 72.050995 0.007523 464.317322
8 464.317322 0.000358 -0.000089 0.009906 76.392487 0.009906 464.317322
9 464.317322 0.000358 -0.000089 0.009357 75.589172 0.009357 464.317322
[L_Toe2_02]
7 342.235809 -0.000477 0.000238 0.001193 -69.234375 0.001193 342.235809
8 342.235809 -0.000477 0.000238 0.001199 -66.238243 0.001199 342.235809
9 342.235809 -0.000477 0.000238 0.001201 -65.689903 0.001201 342.235809
[L_Toe2_03]
7 420.210846 -0.000715 0.000000 0.011145 77.910767 0.011145 420.210846
8 420.210846 -0.000715 0.000000 -0.001865 71.806610 -0.005406 420.210846
9 420.210846 -0.000715 0.000000 -0.001664 70.747749 -0.005210 420.210846
[L_Toe3_02]
7 329.270111 0.000954 0.000000 0.001178 -79.911369 0.001178 329.270111
8 329.270111 0.000954 0.000000 0.001180 -78.467270 0.001180 329.270111
9 329.270111 0.000954 0.000000 0.001179 -78.543915 0.001179 329.270111
[L_Toe3_03]
7 439.137451 -0.001907 0.000954 -179.994568 80.828514 -179.991058 439.137451
8 439.137451 -0.001907 0.000954 -179.986237 85.752869 -179.982742 439.137451
9 439.137451 -0.001907 0.000954 -179.987091 85.510086 -179.983566 439.137451
[planeLockWeightLeft]
7 1000.000122 -0.000083 -0.000160 -0.011826 -0.004376 0.005620 1000.000122
8 1000.000122 -0.000097 -0.000159 -0.011826 -0.004376 0.005620 1000.000122
9 1000.000122 -0.000111 -0.000159 -0.011826 -0.004376 0.005620 1000.000122
[R_Leg01]
7 761.455627 -0.001907 -0.000358 157.631104 38.501961 75.894127 761.455688
8 761.455627 -0.001907 -0.000358 161.681534 34.758957 74.080063 761.455688
9 761.455627 -0.001907 -0.000358 158.763016 30.331709 65.770973 761.455688
[R_Leg02]
7 1441.140625 0.000000 -0.000238 7.818624 2.966147 -36.929405 1441.140625
8 1441.140625 0.000000 -0.000238 4.544814 1.805755 -32.949093 1441.140625
9 1441.140625 0.000000 -0.000238 3.511855 1.772056 -42.376251 1441.140625
[R_Leg03]
7 1686.963989 0.000954 0.001431 0.115487 -0.071752 141.895660 1686.963989
8 1686.963989 0.000954 0.001431 0.115386 -0.071915 142.057846 1686.963989
9 1686.963989 0.000954 0.001431 0.131539 -0.085429 145.771820 1686.963989
[R_Foot]
7 3041.560059 -30.531288 -11.204481 13.044942 -23.468966 22.011776 3041.734131
8 3041.560059 -30.531288 -11.204481 11.918751 -22.865648 20.198921 3041.734131
9 3041.560059 -30.531288 -11.204481 12.110240 -23.375793 20.267769 3041.734131
[planeAlignerRight]
7 -268.452759 -422.110291 -283.427795 -36.577137 -71.339012 -64.343925 574.956787
8 -274.209595 -400.380829 -280.291290 -36.577137 -71.339012 -64.343925 560.409607
9 -271.669922 -409.092712 -281.277618 -36.577137 -71.339012 -64.343925 565.931580
[R_Toe1_01]
7 -188.383347 -224.864899 21.052242 77.263855 0.415401 -171.172318 294.101532
8 -188.383347 -224.864899 21.052242 77.339912 0.336680 -171.890823 294.101532
9 -188.383347 -224.864899 21.052242 77.306122 0.347680 -171.623749 294.101532
[R_Toe2_01]
7 200.637817 -220.002121 -148.787384 -86.535561 38.169640 -47.795563 332.857574
8 200.637817 -220.002121 -148.787384 -85.333206 38.705498 -45.543350 332.857574
9 200.637817 -220.002121 -148.787384 -86.320961 38.387486 -46.454948 332.857574
[R_Toe3_01]
7 188.606735 -220.092957 191.126343 -73.477287 -15.965277 -66.805191 347.192566
8 188.606735 -220.092957 191.126343 -73.610901 -16.931839 -65.190956 347.192566
9 188.606735 -220.092957 191.126343 -72.669121 -16.425774 -65.797401 347.192566
[planeLockWeightRight]
7 999.999695 0.000610 -0.000546 -0.011823 -0.004379 -0.000027 999.999695
8 999.999695 0.000610 -0.000532 -0.011823 -0.004379 -0.000027 999.999695
9 999.999695 0.000610 -0.000518 -0.011823 -0.004379 -0.000027 999.999695
[R_Toe1_02]
7 413.762085 0.000477 -0.000119 0.001396 -24.411478 0.001396 413.762085
8 413.762085 0.000477 -0.000119 0.001399 -23.991655 0.001399 413.762085
9 413.762085 0.000477 -0.000119 0.001398 -24.188883 0.001398 413.762085
[R_Toe1_03]
7 464.317810 0.000000 0.001088 0.000642 37.753822 -0.003253 464.317810
8 464.317810 0.000000 0.001088 0.000695 36.048935 -0.003229 464.317810
9 464.317810 0.000000 0.001088 0.000670 36.856030 -0.003240 464.317810
[R_Toe2_02]
7 342.234741 -0.000954 0.000238 -0.002334 -78.767685 -0.002334 342.234741
8 342.234741 -0.000954 0.000238 -0.002333 -79.190651 -0.002333 342.234741
9 342.234741 -0.000954 0.000238 -0.002334 -79.043106 -0.002334 342.234741
[R_Toe2_03]
7 420.210846 0.000715 -0.000268 -179.994690 71.294571 -179.998230 420.210846
8 420.210846 0.000715 -0.000268 -179.995117 68.722382 -179.998672 420.210846
9 420.210846 0.000715 -0.000268 -179.994949 69.737961 -179.998505 420.210846
[R_Toe3_02]
7 329.270355 -0.000477 -0.000954 0.001176 -83.223030 0.001176 329.270355
8 329.270355 -0.000477 -0.000954 0.001175 -83.627144 0.001175 329.270355
9 329.270355 -0.000477 -0.000954 0.001176 -83.461388 0.001176 329.270355
[R_Toe3_03]
7 439.137939 0.000238 0.001431 -179.999176 64.596420 -179.995590 439.137939
8 439.137939 0.000238 0.001431 -179.999451 61.705399 -179.995850 439.137939
9 439.137939 0.000238 0.001431 -179.999344 62.884281 -179.995758 439.137939
[Rear_Leg02]
7 1162.777710 -0.029802 0.005960 -1.451938 -12.145557 -74.675865 1162.777710
8 1162.777710 -0.029802 0.005960 -9.408917 -15.519392 -54.869648 1162.777710
9 1162.777710 -0.029802 0.005960 -9.085643 -15.031288 -54.310562 1162.777710
[Rear_Leg03]
7 607.192505 -0.013351 -0.073195 0.006591 -0.001712 57.329842 607.192505
8 607.192505 -0.013351 -0.073195 0.004106 0.005433 45.946785 607.192505
9 607.192505 -0.013351 -0.073195 0.004107 0.005432 45.968277 607.192505
[Rear_Leg04]
7 995.874512 -0.020504 -0.011921 -0.036659 -0.015035 45.399418 995.874573
8 995.874512 -0.020504 -0.011921 -0.031523 -0.010937 27.516060 995.874573
9 995.874512 -0.020504 -0.011921 -0.031525 -0.010930 27.541519 995.874573
[Rear_Foot]
7 3096.176270 -0.067472 -0.041425 -84.914116 79.866295 110.695290 3096.176270
8 3096.176270 -0.067472 -0.041425 -116.903282 75.760391 94.947868 3096.176270
9 3096.176270 -0.067472 -0.041425 -115.804695 76.114807 95.057060 3096.176270
[planeAlignerCenter]
7 68.481384 23.404181 -869.311035 12.240772 -0.001473 179.998184 872.318237
8 101.394493 -88.651733 -829.739502 12.240772 -0.001473 179.998184 840.599548
9 98.695663 -91.337891 -819.241760 12.240773 -0.001473 179.998184 830.205078
[Rear_Toe1_01]
7 0.653352 83.966492 -371.173737 -4.289431 46.927647 84.449875 380.553192
8 0.653352 83.966492 -371.173737 -4.092012 44.677074 83.661652 380.553192
9 0.653352 83.966492 -371.173737 -3.928711 43.849667 83.876259 380.553192
[Rear_Toe2_01]
7 178.200760 -294.826019 -362.060547 -0.989290 39.785007 -65.156174 499.765686
8 178.200760 -294.826019 -362.060547 -5.924498 31.609388 -62.555805 499.765686
9 178.200760 -294.826019 -362.060547 -6.085351 31.207586 -62.797218 499.765686
[Rear_Toe3_01]
7 -153.359680 -308.780914 -362.060852 9.346267 39.459248 -102.884270 499.952881
8 -153.359680 -308.780914 -362.060852 4.893569 34.754654 -105.664589 499.952881
9 -153.359680 -308.780914 -362.060852 4.832357 34.179607 -105.785339 499.952881
[planeLockWeightCenter]
7 500.000549 0.000305 -0.000124 -0.011814 -0.004373 -0.000015 500.000519
8 1000.000488 0.000305 -0.000248 -0.011814 -0.004373 -0.000015 1000.000488
9 1000.000488 0.000305 -0.000240 -0.011814 -0.004373 -0.000015 1000.000488
[Rear_Toe1_02]
7 379.707825 0.194073 0.000477 -0.002644 -32.974346 -0.002644 379.707855
8 379.707825 0.194073 0.000477 -0.000312 -32.628941 0.006973 379.707855
9 379.707825 0.194073 0.000477 -0.000329 -32.863556 0.006983 379.707855
[Rear_Toe1_03]
7 500.129700 0.165701 0.000119 -0.026700 87.684715 -0.030198 500.129761
8 500.129700 0.165701 0.000119 -0.003892 57.803852 -0.000253 500.129761
9 500.129700 0.165701 0.000119 -0.004042 60.167580 -0.000423 500.129761
[Rear_Toe2_02]
7 340.494507 0.000238 -0.000954 0.001195 -68.090469 0.001195 340.494507
8 340.494507 0.000238 -0.000954 0.001259 -47.446091 0.001259 340.494507
9 340.494507 0.000238 -0.000954 0.001258 -47.824516 0.001258 340.494507
[Rear_Toe2_03]
7 433.103577 0.000000 0.000238 0.005930 67.171806 0.005930 433.103546
8 433.103577 0.000000 0.000238 -0.003318 41.576229 0.000516 433.103546
9 433.103577 0.000000 0.000238 -0.003327 41.983829 0.000501 433.103546
[Rear_Toe3_02]
7 340.494141 -0.000358 -0.000477 0.001187 -72.813156 0.001187 340.494171
8 340.494141 -0.000358 -0.000477 -0.002405 -60.026600 -0.002405 340.494171
9 340.494141 -0.000358 -0.000477 -0.002406 -59.828934 -0.002406 340.494171
[Rear_Toe3_03]
7 433.103577 0.001431 -0.000238 0.008705 74.504143 0.008705 433.103546
8 433.103577 0.001431 -0.000238 -0.000146 56.143860 -0.003801 433.103546
9 433.103577 0.001431 -0.000238 -0.000131 55.888363 -0.003788 433.103546
[Back_Bone]
7 1312.175781 -701.934692 0.000954 2.790756 -1.457651 -85.682373 1488.125488
8 1312.175781 -701.934692 0.000954 2.790756 -1.457651 -85.682373 1488.125488
9 1312.175781 -701.934692 0.000954 2.790756 -1.457651 -85.682373 1488.125488
[Head]
7 1406.159424 809.709290 0.001431 -1.623609 2.697530 7.613079 1622.625488
8 1406.159424 809.709290 0.001431 -1.623609 2.697531 7.613079 1622.625488
9 1406.159424 809.709290 0.001431 -1.623609 2.697531 7.613082 1622.625488
[Motor_Bone]
7 1158.364380 -417.834747 0.000477 3.394448 -1.301977 -115.970810 1231.419434
8 1158.364380 -417.834747 0.000477 3.394448 -1.301977 -115.970810 1231.419434
9 1158.364380 -417.834747 0.000477 3.394448 -1.301977 -115.970810 1231.419434
[Ping_Mechanism]
7 1284.591919 -483.221741 6.719777 0.000103 -0.000053 82.120995 1372.488525
8 1307.976318 -499.170837 0.862001 0.000103 -0.000053 82.120995 1399.990845
9 1319.126831 -505.321808 -5.980937 0.000103 -0.000053 82.120995 1412.615112
[BN_LookIK]
7 193.241119 1380.371704 -0.002861 0.000000 89.965736 -31.038179 1393.832153
8 193.241119 1380.371704 -0.002861 0.000000 89.965736 -31.038179 1393.832153
9 193.241119 1380.371704 -0.002861 0.000000 89.965736 -31.038179 1393.832153
[bottomMouth]
7 -435.092926 615.759399 -0.000954 -0.000022 0.000016 73.527184 753.966492
8 -435.092926 615.759399 -0.000954 -0.000022 0.000016 73.527184 753.966492
9 -435.092926 615.759399 -0.000954 -0.000022 0.000016 73.527184 753.966492
[L_Mouth01]
7 554.440979 7.658243 838.222046 150.204178 23.759130 109.605339 1005.027161
8 554.440979 7.658243 838.222046 150.204178 23.759130 109.605339 1005.027161
9 554.440979 7.658243 838.222046 150.204178 23.759130 109.605339 1005.027161
[L_mouthFront]
7 551.629089 934.514771 339.150421 0.000081 2.804060 79.119301 1136.941284
8 551.629089 934.514771 339.150421 0.000081 2.804060 79.119301 1136.941284
9 551.629089 934.514771 339.150421 0.000081 2.804060 79.119301 1136.941284
[mouthGun]
7 55.332661 1627.420898 0.000000 0.000023 0.000009 -11.038128 1628.361328
8 55.332661 1627.420898 0.000000 0.000023 0.000009 -11.038128 1628.361328
9 55.332661 1627.420898 0.000000 0.000023 0.000009 -11.038128 1628.361328
[R_Mouth01]
7 554.442383 7.659197 -838.223938 29.795891 -23.759109 109.605331 1005.029541
8 554.442383 7.659197 -838.223938 29.795891 -23.759109 109.605331 1005.029541
9 554.442383 7.659197 -838.223938 29.795891 -23.759109 109.605331 1005.029541
[R_mouthFront]
7 551.629089 934.514282 -339.151367 0.000029 -2.803930 79.119133 1136.941162
8 551.629089 934.514282 -339.151367 0.000029 -2.803930 79.119133 1136.941162
9 551.629089 934.514282 -339.151367 0.000029 -2.803930 79.119133 1136.941162
[TopMouth]
7 461.269867 -56.106091 -0.008583 -0.000059 -0.000268 92.025169 464.669525
8 461.269867 -56.106091 -0.008583 -0.000059 -0.000268 92.025169 464.669525
9 461.269867 -56.106091 -0.008583 -0.000059 -0.000268 92.025169 464.669525
[weapon_bone]
7 -987.239868 1448.372803 0.001431 0.000000 89.965736 -31.038221 1752.833740
8 -987.239868 1448.372803 0.001431 0.000000 89.965736 -31.038221 1752.833740
9 -987.239868 1448.372803 0.001431 0.000000 89.965736 -31.038221 1752.833740
